<svg width="50" height="24" fill="none" xmlns="http://www.w3.org/2000/svg"><path d="M1.137 0a1.25 1.25 0 00-.439.07C.558.12.432.195.326.288A.98.98 0 00.08.614.877.877 0 000 1v2c0 .265.12.52.333.707.213.188.502.293.804.293h47.726c.15.003.3-.021.439-.07.14-.05.266-.123.372-.217a.98.98 0 00.246-.327A.877.877 0 0050 3V1c0-.265-.12-.52-.333-.707A1.22 1.22 0 0048.863 0H1.137zm0 10a1.25 1.25 0 00-.439.07c-.14.05-.266.123-.372.217a.98.98 0 00-.246.327A.877.877 0 000 11v2c0 .265.12.52.333.707.213.188.502.293.804.293h47.726c.15.003.3-.021.439-.07.14-.05.266-.123.372-.217a.98.98 0 00.246-.327A.877.877 0 0050 13v-2c0-.265-.12-.52-.333-.707a1.22 1.22 0 00-.804-.293H1.137zm0 10a1.25 1.25 0 00-.439.07c-.14.05-.266.123-.372.217a.98.98 0 00-.246.327A.877.877 0 000 21v2c0 .265.12.52.333.707.213.187.502.293.804.293h47.726c.15.003.3-.021.439-.07.14-.05.266-.124.372-.217a.98.98 0 00.246-.327A.877.877 0 0050 23v-2c0-.265-.12-.52-.333-.707a1.22 1.22 0 00-.804-.293H1.137z"/></svg>