<svg width="43" height="47" viewBox="0 0 43 47" fill="none" xmlns="http://www.w3.org/2000/svg">
<path d="M8.61356 33.2013H8.61359V33.1955V14.5617H34.417L34.417 33.1955L34.4171 33.1999C34.4239 33.9835 34.1274 34.7422 33.5845 35.3225C33.0413 35.903 32.2918 36.2618 31.4864 36.3234L31.0245 36.3587V36.8219V44.2594C30.9846 44.8609 30.7137 45.4275 30.2629 45.8442C29.8082 46.2644 29.2051 46.5 28.5764 46.5C27.9477 46.5 27.3445 46.2644 26.8899 45.8442C26.4391 45.4275 26.1681 44.8609 26.1283 44.2594V36.842V36.342H25.6283H17.3921H16.8921V36.842V44.2594C16.8523 44.8609 16.5814 45.4275 16.1305 45.8442C15.6759 46.2644 15.0727 46.5 14.444 46.5C13.8154 46.5 13.2122 46.2644 12.7575 45.8442C12.3067 45.4275 12.0358 44.8609 11.996 44.2594V36.8219V36.3588L11.5342 36.3234C10.7299 36.2617 9.98162 35.9028 9.44014 35.3223C8.89893 34.742 8.60446 33.9837 8.61356 33.2013ZM2.95148 16.2446H2.95318C3.60427 16.2446 4.22673 16.4983 4.68415 16.9467C5.14123 17.3948 5.39615 18.0004 5.39615 18.6297L5.39614 31.0317L5.39615 31.0334C5.39726 31.346 5.33544 31.6559 5.21398 31.9454C5.09251 32.2351 4.91365 32.499 4.68715 32.7218C4.46063 32.9446 4.19093 33.122 3.89326 33.2431C3.59558 33.3643 3.27608 33.4268 2.95319 33.4268C2.29939 33.4268 1.67433 33.1721 1.21499 32.7218C0.755998 32.2718 0.5 31.6637 0.5 31.0317V18.6297C0.499998 18.3172 0.562912 18.0075 0.685398 17.7183C0.807894 17.4291 0.987696 17.1658 1.21499 16.9438C1.44231 16.7217 1.71264 16.5453 2.01075 16.4251C2.30887 16.3049 2.62859 16.2435 2.95148 16.2446ZM40.0553 16.2446H40.057C40.7081 16.2446 41.3306 16.4983 41.788 16.9467C42.2451 17.3948 42.5 18.0004 42.5 18.6297L42.5 31.0317L42.5 31.0334C42.5011 31.346 42.4393 31.6559 42.3178 31.9454C42.1963 32.2351 42.0175 32.499 41.791 32.7218C41.5645 32.9446 41.2948 33.122 40.9971 33.2431C40.6994 33.3643 40.3799 33.4268 40.057 33.4268C39.4032 33.4268 38.7782 33.1721 38.3188 32.7218C37.8598 32.2718 37.6038 31.6637 37.6038 31.0317V18.6297C37.6038 18.3172 37.6667 18.0075 37.7892 17.7183C37.9117 17.4291 38.0915 17.1658 38.3188 16.9438C38.5461 16.7217 38.8165 16.5453 39.1146 16.4251C39.4127 16.3049 39.7324 16.2435 40.0553 16.2446ZM34.2175 11.5581H8.69884C8.87879 9.09888 9.97802 6.78191 11.7988 5.05818L12.0879 4.78455L12.0849 4.77949L12.1857 4.70331C14.8531 2.68771 18.094 1.53264 21.4612 1.39867C24.8472 1.50563 28.1104 2.66256 30.7817 4.70182L30.8891 4.7838L30.8482 4.85172L31.1395 5.12799C32.9395 6.83524 34.0301 9.12541 34.2175 11.5581ZM25.9725 5.42931C25.5902 5.80408 25.3736 6.31451 25.3736 6.84889C25.3736 7.38327 25.5902 7.89371 25.9725 8.26848C26.3544 8.64292 26.8704 8.85155 27.4064 8.85155C27.9423 8.85155 28.4583 8.64292 28.8402 8.26848C29.2225 7.89371 29.4391 7.38327 29.4391 6.84889C29.4391 6.31452 29.2225 5.80408 28.8402 5.42931C28.4583 5.05486 27.9423 4.84623 27.4064 4.84623C26.8704 4.84623 26.3544 5.05486 25.9725 5.42931ZM14.5889 5.42931C14.2066 5.80408 13.99 6.31452 13.99 6.84889C13.99 7.38327 14.2066 7.89371 14.5889 8.26848C14.9709 8.64292 15.4868 8.85155 16.0228 8.85155C16.5588 8.85155 17.0747 8.64292 17.4567 8.26848C17.839 7.89371 18.0556 7.38327 18.0556 6.84889C18.0556 6.31451 17.839 5.80408 17.4567 5.42931C17.0747 5.05486 16.5588 4.84623 16.0228 4.84623C15.4868 4.84623 14.9709 5.05486 14.5889 5.42931Z" fill="#A4C639"/>
<path d="M8.61356 33.2013H8.61359V33.1955V14.5617H34.417L34.417 33.1955L34.4171 33.1999C34.4239 33.9835 34.1274 34.7422 33.5845 35.3225C33.0413 35.903 32.2918 36.2618 31.4864 36.3234L31.0245 36.3587V36.8219V44.2594C30.9846 44.8609 30.7137 45.4275 30.2629 45.8442C29.8082 46.2644 29.2051 46.5 28.5764 46.5C27.9477 46.5 27.3445 46.2644 26.8899 45.8442C26.4391 45.4275 26.1681 44.8609 26.1283 44.2594V36.842V36.342H25.6283H17.3921H16.8921V36.842V44.2594C16.8523 44.8609 16.5814 45.4275 16.1305 45.8442C15.6759 46.2644 15.0727 46.5 14.444 46.5C13.8154 46.5 13.2122 46.2644 12.7575 45.8442C12.3067 45.4275 12.0358 44.8609 11.996 44.2594V36.8219V36.3588L11.5342 36.3234C10.7299 36.2617 9.98162 35.9028 9.44014 35.3223C8.89893 34.742 8.60446 33.9837 8.61356 33.2013ZM2.95148 16.2446H2.95318C3.60427 16.2446 4.22673 16.4983 4.68415 16.9467C5.14123 17.3948 5.39615 18.0004 5.39615 18.6297L5.39614 31.0317L5.39615 31.0334C5.39726 31.346 5.33544 31.6559 5.21398 31.9454C5.09251 32.2351 4.91365 32.499 4.68715 32.7218C4.46063 32.9446 4.19093 33.122 3.89326 33.2431C3.59558 33.3643 3.27608 33.4268 2.95319 33.4268C2.29939 33.4268 1.67433 33.1721 1.21499 32.7218C0.755998 32.2718 0.5 31.6637 0.5 31.0317V18.6297C0.499998 18.3172 0.562912 18.0075 0.685398 17.7183C0.807894 17.4291 0.987696 17.1658 1.21499 16.9438C1.44231 16.7217 1.71264 16.5453 2.01075 16.4251C2.30887 16.3049 2.62859 16.2435 2.95148 16.2446ZM40.0553 16.2446H40.057C40.7081 16.2446 41.3306 16.4983 41.788 16.9467C42.2451 17.3948 42.5 18.0004 42.5 18.6297L42.5 31.0317L42.5 31.0334C42.5011 31.346 42.4393 31.6559 42.3178 31.9454C42.1963 32.2351 42.0175 32.499 41.791 32.7218C41.5645 32.9446 41.2948 33.122 40.9971 33.2431C40.6994 33.3643 40.3799 33.4268 40.057 33.4268C39.4032 33.4268 38.7782 33.1721 38.3188 32.7218C37.8598 32.2718 37.6038 31.6637 37.6038 31.0317V18.6297C37.6038 18.3172 37.6667 18.0075 37.7892 17.7183C37.9117 17.4291 38.0915 17.1658 38.3188 16.9438C38.5461 16.7217 38.8165 16.5453 39.1146 16.4251C39.4127 16.3049 39.7324 16.2435 40.0553 16.2446ZM34.2175 11.5581H8.69884C8.87879 9.09888 9.97802 6.78191 11.7988 5.05818L12.0879 4.78455L12.0849 4.77949L12.1857 4.70331C14.8531 2.68771 18.094 1.53264 21.4612 1.39867C24.8472 1.50563 28.1104 2.66256 30.7817 4.70182L30.8891 4.7838L30.8482 4.85172L31.1395 5.12799C32.9395 6.83524 34.0301 9.12541 34.2175 11.5581ZM25.9725 5.42931C25.5902 5.80408 25.3736 6.31451 25.3736 6.84889C25.3736 7.38327 25.5902 7.89371 25.9725 8.26848C26.3544 8.64292 26.8704 8.85155 27.4064 8.85155C27.9423 8.85155 28.4583 8.64292 28.8402 8.26848C29.2225 7.89371 29.4391 7.38327 29.4391 6.84889C29.4391 6.31452 29.2225 5.80408 28.8402 5.42931C28.4583 5.05486 27.9423 4.84623 27.4064 4.84623C26.8704 4.84623 26.3544 5.05486 25.9725 5.42931ZM14.5889 5.42931C14.2066 5.80408 13.99 6.31452 13.99 6.84889C13.99 7.38327 14.2066 7.89371 14.5889 8.26848C14.9709 8.64292 15.4868 8.85155 16.0228 8.85155C16.5588 8.85155 17.0747 8.64292 17.4567 8.26848C17.839 7.89371 18.0556 7.38327 18.0556 6.84889C18.0556 6.31451 17.839 5.80408 17.4567 5.42931C17.0747 5.05486 16.5588 4.84623 16.0228 4.84623C15.4868 4.84623 14.9709 5.05486 14.5889 5.42931Z" stroke="black"/>
<path d="M8.61356 33.2013H8.61359V33.1955V14.5617H34.417L34.417 33.1955L34.4171 33.1999C34.4239 33.9835 34.1274 34.7422 33.5845 35.3225C33.0413 35.903 32.2918 36.2618 31.4864 36.3234L31.0245 36.3587V36.8219V44.2594C30.9846 44.8609 30.7137 45.4275 30.2629 45.8442C29.8082 46.2644 29.2051 46.5 28.5764 46.5C27.9477 46.5 27.3445 46.2644 26.8899 45.8442C26.4391 45.4275 26.1681 44.8609 26.1283 44.2594V36.842V36.342H25.6283H17.3921H16.8921V36.842V44.2594C16.8523 44.8609 16.5814 45.4275 16.1305 45.8442C15.6759 46.2644 15.0727 46.5 14.444 46.5C13.8154 46.5 13.2122 46.2644 12.7575 45.8442C12.3067 45.4275 12.0358 44.8609 11.996 44.2594V36.8219V36.3588L11.5342 36.3234C10.7299 36.2617 9.98162 35.9028 9.44014 35.3223C8.89893 34.742 8.60446 33.9837 8.61356 33.2013ZM2.95148 16.2446H2.95318C3.60427 16.2446 4.22673 16.4983 4.68415 16.9467C5.14123 17.3948 5.39615 18.0004 5.39615 18.6297L5.39614 31.0317L5.39615 31.0334C5.39726 31.346 5.33544 31.6559 5.21398 31.9454C5.09251 32.2351 4.91365 32.499 4.68715 32.7218C4.46063 32.9446 4.19093 33.122 3.89326 33.2431C3.59558 33.3643 3.27608 33.4268 2.95319 33.4268C2.29939 33.4268 1.67433 33.1721 1.21499 32.7218C0.755998 32.2718 0.5 31.6637 0.5 31.0317V18.6297C0.499998 18.3172 0.562912 18.0075 0.685398 17.7183C0.807894 17.4291 0.987696 17.1658 1.21499 16.9438C1.44231 16.7217 1.71264 16.5453 2.01075 16.4251C2.30887 16.3049 2.62859 16.2435 2.95148 16.2446ZM40.0553 16.2446H40.057C40.7081 16.2446 41.3306 16.4983 41.788 16.9467C42.2451 17.3948 42.5 18.0004 42.5 18.6297L42.5 31.0317L42.5 31.0334C42.5011 31.346 42.4393 31.6559 42.3178 31.9454C42.1963 32.2351 42.0175 32.499 41.791 32.7218C41.5645 32.9446 41.2948 33.122 40.9971 33.2431C40.6994 33.3643 40.3799 33.4268 40.057 33.4268C39.4032 33.4268 38.7782 33.1721 38.3188 32.7218C37.8598 32.2718 37.6038 31.6637 37.6038 31.0317V18.6297C37.6038 18.3172 37.6667 18.0075 37.7892 17.7183C37.9117 17.4291 38.0915 17.1658 38.3188 16.9438C38.5461 16.7217 38.8165 16.5453 39.1146 16.4251C39.4127 16.3049 39.7324 16.2435 40.0553 16.2446ZM34.2175 11.5581H8.69884C8.87879 9.09888 9.97802 6.78191 11.7988 5.05818L12.0879 4.78455L12.0849 4.77949L12.1857 4.70331C14.8531 2.68771 18.094 1.53264 21.4612 1.39867C24.8472 1.50563 28.1104 2.66256 30.7817 4.70182L30.8891 4.7838L30.8482 4.85172L31.1395 5.12799C32.9395 6.83524 34.0301 9.12541 34.2175 11.5581ZM25.9725 5.42931C25.5902 5.80408 25.3736 6.31451 25.3736 6.84889C25.3736 7.38327 25.5902 7.89371 25.9725 8.26848C26.3544 8.64292 26.8704 8.85155 27.4064 8.85155C27.9423 8.85155 28.4583 8.64292 28.8402 8.26848C29.2225 7.89371 29.4391 7.38327 29.4391 6.84889C29.4391 6.31452 29.2225 5.80408 28.8402 5.42931C28.4583 5.05486 27.9423 4.84623 27.4064 4.84623C26.8704 4.84623 26.3544 5.05486 25.9725 5.42931ZM14.5889 5.42931C14.2066 5.80408 13.99 6.31452 13.99 6.84889C13.99 7.38327 14.2066 7.89371 14.5889 8.26848C14.9709 8.64292 15.4868 8.85155 16.0228 8.85155C16.5588 8.85155 17.0747 8.64292 17.4567 8.26848C17.839 7.89371 18.0556 7.38327 18.0556 6.84889C18.0556 6.31451 17.839 5.80408 17.4567 5.42931C17.0747 5.05486 16.5588 4.84623 16.0228 4.84623C15.4868 4.84623 14.9709 5.05486 14.5889 5.42931Z" stroke="url(#paint0_linear)"/>
<defs>
<linearGradient id="paint0_linear" x1="21.5" y1="0" x2="21.5" y2="47" gradientUnits="userSpaceOnUse">
<stop stop-color="white"/>
<stop offset="1" stop-color="white" stop-opacity="0"/>
</linearGradient>
</defs>
</svg>
