<svg viewBox="0 0 74 74" fill="none" xmlns="http://www.w3.org/2000/svg"><path d="M74 0L37 37 0 74V41L41 0h33z" fill="#D22856"/><path d="M27.92 37.31l-.93.94-5.01-1.21 1.17 5.04-.87.87-1.34-6.04-5.56-1.19.9-.9 4.56 1.04-1.03-4.57.87-.87 1.16 5.53 6.08 1.36zm-6.05-8.08l.77-.77 3.93 3.93c.73.72 1.36 1.4 1.9 2.03l.04-.03-1.93-9.87.9-.9 7.06 7.07-.77.78-3.9-3.9c-.64-.64-1.3-1.35-1.95-2.12l-.04.05 1.96 9.9-.9.9-7.07-7.07zm16.78-2.65l-.82.82-6.33-6.34-2.24 2.24-.73-.73 5.3-5.3.73.73-2.24 2.24 6.33 6.34z" fill="#fff"/></svg>