<svg width="43" height="47" fill="none" xmlns="http://www.w3.org/2000/svg"><path d="M8.61 33.2V14.56h25.8V33.2c.01.78-.28 1.54-.83 2.12a3.2 3.2 0 01-2.1 1l-.46.04v7.9c-.04.6-.3 1.17-.76 1.58a2.49 2.49 0 01-3.37 0 2.37 2.37 0 01-.76-1.58v-7.92h-9.24v7.92c-.04.6-.3 1.17-.76 1.58a2.49 2.49 0 01-3.37 0 2.37 2.37 0 01-.76-1.58v-7.9l-.47-.04a3.2 3.2 0 01-2.09-1 3.06 3.06 0 01-.83-2.12zM2.95 16.24c.65 0 1.28.26 1.73.7.46.45.72 1.06.72 1.69v12.4a2.34 2.34 0 01-.71 1.7 2.45 2.45 0 01-1.74.7c-.65 0-1.28-.26-1.74-.7a2.37 2.37 0 01-.71-1.7v-12.4a2.34 2.34 0 01.71-1.69 2.45 2.45 0 011.74-.7zm37.1 0c.66 0 1.28.26 1.74.7.46.45.71 1.06.71 1.69v12.4a2.33 2.33 0 01-.7 1.7 2.45 2.45 0 01-1.74.7c-.66 0-1.28-.26-1.74-.7a2.37 2.37 0 01-.72-1.7v-12.4a2.34 2.34 0 01.72-1.69 2.45 2.45 0 011.74-.7zm-5.83-4.68H8.7a9.95 9.95 0 013.1-6.5l.29-.28.1-.08a16.48 16.48 0 019.27-3.3 16.2 16.2 0 019.32 3.3l.1.08-.03.07.29.28c1.8 1.7 2.89 4 3.08 6.43zm-8.25-6.13a1.99 1.99 0 000 2.84 2.05 2.05 0 002.87 0 1.99 1.99 0 000-2.84 2.05 2.05 0 00-2.87 0zm-11.38 0a1.99 1.99 0 000 2.84 2.05 2.05 0 002.87 0 1.99 1.99 0 000-2.84 2.05 2.05 0 00-2.87 0z" fill="#A4C639"/><path d="M8.61 33.2h0v0-18.64h25.8V33.2h0c.01.78-.28 1.54-.83 2.12a3.2 3.2 0 01-2.1 1l-.46.04v7.9c-.04.6-.3 1.17-.76 1.58a2.49 2.49 0 01-3.37 0 2.37 2.37 0 01-.76-1.58v-7.92h-9.24v7.92c-.04.6-.3 1.17-.76 1.58a2.49 2.49 0 01-3.37 0 2.37 2.37 0 01-.76-1.58v-7.9l-.47-.04a3.2 3.2 0 01-2.09-1 3.06 3.06 0 01-.83-2.12zM2.95 16.24h0c.65 0 1.28.26 1.73.7.46.45.72 1.06.72 1.69v12.4h0a2.34 2.34 0 01-.71 1.7 2.45 2.45 0 01-1.74.7c-.65 0-1.28-.26-1.74-.7a2.37 2.37 0 01-.71-1.7v-12.4a2.34 2.34 0 01.71-1.69 2.45 2.45 0 011.74-.7zm37.1 0h0c.66 0 1.28.26 1.74.7.46.45.71 1.06.71 1.69v12.4h0a2.33 2.33 0 01-.7 1.7 2.45 2.45 0 01-1.74.7c-.66 0-1.28-.26-1.74-.7a2.37 2.37 0 01-.72-1.7v-12.4a2.34 2.34 0 01.72-1.69 2.45 2.45 0 011.74-.7zm-5.83-4.68H8.7a9.95 9.95 0 013.1-6.5l.29-.28h0l.1-.08a16.48 16.48 0 019.27-3.3 16.2 16.2 0 019.32 3.3l.1.08-.03.07.29.28c1.8 1.7 2.89 4 3.08 6.43zm-8.25-6.13a1.99 1.99 0 000 2.84 2.05 2.05 0 002.87 0 1.99 1.99 0 000-2.84 2.05 2.05 0 00-2.87 0zm-11.38 0a1.99 1.99 0 000 2.84 2.05 2.05 0 002.87 0 1.99 1.99 0 000-2.84 2.05 2.05 0 00-2.87 0z" stroke="#000"/><path d="M8.61 33.2h0v0-18.64h25.8V33.2h0c.01.78-.28 1.54-.83 2.12a3.2 3.2 0 01-2.1 1l-.46.04v7.9c-.04.6-.3 1.17-.76 1.58a2.49 2.49 0 01-3.37 0 2.37 2.37 0 01-.76-1.58v-7.92h-9.24v7.92c-.04.6-.3 1.17-.76 1.58a2.49 2.49 0 01-3.37 0 2.37 2.37 0 01-.76-1.58v-7.9l-.47-.04a3.2 3.2 0 01-2.09-1 3.06 3.06 0 01-.83-2.12zM2.95 16.24h0c.65 0 1.28.26 1.73.7.46.45.72 1.06.72 1.69v12.4h0a2.34 2.34 0 01-.71 1.7 2.45 2.45 0 01-1.74.7c-.65 0-1.28-.26-1.74-.7a2.37 2.37 0 01-.71-1.7v-12.4a2.34 2.34 0 01.71-1.69 2.45 2.45 0 011.74-.7zm37.1 0h0c.66 0 1.28.26 1.74.7.46.45.71 1.06.71 1.69v12.4h0a2.33 2.33 0 01-.7 1.7 2.45 2.45 0 01-1.74.7c-.66 0-1.28-.26-1.74-.7a2.37 2.37 0 01-.72-1.7v-12.4a2.34 2.34 0 01.72-1.69 2.45 2.45 0 011.74-.7zm-5.83-4.68H8.7a9.95 9.95 0 013.1-6.5l.29-.28h0l.1-.08a16.48 16.48 0 019.27-3.3 16.2 16.2 0 019.32 3.3l.1.08-.03.07.29.28c1.8 1.7 2.89 4 3.08 6.43zm-8.25-6.13a1.99 1.99 0 000 2.84 2.05 2.05 0 002.87 0 1.99 1.99 0 000-2.84 2.05 2.05 0 00-2.87 0zm-11.38 0a1.99 1.99 0 000 2.84 2.05 2.05 0 002.87 0 1.99 1.99 0 000-2.84 2.05 2.05 0 00-2.87 0z" stroke="url(#paint0_linear)"/><defs><linearGradient id="paint0_linear" x1="21.5" y1="0" x2="21.5" y2="47" gradientUnits="userSpaceOnUse"><stop stop-color="#fff"/><stop offset="1" stop-color="#fff" stop-opacity="0"/></linearGradient></defs></svg>