<svg width="54" height="54" fill="none" xmlns="http://www.w3.org/2000/svg">
  <circle opacity=".1" cx="27" cy="27" r="25.5" fill="#fff" stroke="#283645" stroke-width="3"/>
  <path d="M29.56 20.17a3.67 3.67 0 012.11-.03c.69.2 1.3.59 1.72 1.12.72-.2 1.42-.44 2.14-.65-.01.32-.1.63-.26.91a2.2 2.2 0 01-.65.73A1.8 1.8 0 0036 21.8c-.1.41-.3.8-.59 1.13-.29.33-.65.6-1.07.77-.25 6.27-3.37 10.47-10.69 10.3h-.5c-.44 0-4.42-.43-5.15-1.76a7.28 7.28 0 004.98-1.09c-1.03-.29-2.85-.45-3.16-2.74.4.13.81.16 1.22.09-1.28-.8-2.7-1.46-2.62-3.5.4.3.9.46 1.42.43-.74-.23-2.09-3.12-.94-4.6 1.92 1.72 3.96 3.34 7.59 3.5.22-2.12 1.2-3.55 3.07-4.16z" fill="#D22856"/>
</svg>
